<svg id="Camada_1" data-name="Camada 1" xmlns="http://www.w3.org/2000/svg" viewBox="0 0 709.76 725.88"><defs><style>.cls-1{fill:#f3efef;}</style></defs><title>icon-telephone</title><path class="cls-1" d="M402.75,253.62l-44.16-76.34A80.7,80.7,0,0,0,268,139.73h0a80.67,80.67,0,0,0-54,47.8L172.47,290.35a88.07,88.07,0,0,0-2.22,59.72h0a773,773,0,0,0,488,497l34.06,11.56A80.7,80.7,0,0,0,749,856.78l47.65-19.65a134.49,134.49,0,0,0,73.21-73.41h0A80.67,80.67,0,0,0,837,664.21l-66.34-40.3a80.69,80.69,0,0,0-100.43,13.46L655,653.47A80.7,80.7,0,0,1,556.45,668c-27-15.38-62.47-40.88-105.81-83.18-47.31-46.17-76.35-85.18-94.06-114.56a80.58,80.58,0,0,1,12.9-99.24l19.76-19.26A80.69,80.69,0,0,0,402.75,253.62Z" transform="translate(-166.08 -137)"/></svg>