<svg id="Camada_1" data-name="Camada 1" xmlns="http://www.w3.org/2000/svg" viewBox="0 0 499 499"><title>insta_logo</title><path d="M378.74.5H121.26A120.77,120.77,0,0,0,.5,121.26V378.74A120.77,120.77,0,0,0,121.26,499.5H378.74A120.77,120.77,0,0,0,499.5,378.74V121.26A120.77,120.77,0,0,0,378.74.5ZM461.5,354.09A107.41,107.41,0,0,1,354.09,461.5H145.91A107.41,107.41,0,0,1,38.5,354.09V145.91A107.41,107.41,0,0,1,145.91,38.5H354.09A107.41,107.41,0,0,1,461.5,145.91Z" transform="translate(-0.5 -0.5)"/><path d="M250.5,116.5a137,137,0,1,0,137,137A137,137,0,0,0,250.5,116.5Zm0,226a89,89,0,1,1,89-89A89,89,0,0,1,250.5,342.5Z" transform="translate(-0.5 -0.5)"/><circle cx="394" cy="110" r="31"/></svg>