<svg id="Camada_2" data-name="Camada 2" xmlns="http://www.w3.org/2000/svg" viewBox="0 0 768.8 355.99"><defs><style>.cls-1{fill:#e8dddd;}.cls-2{fill:#4fafaa;}.cls-3,.cls-4,.cls-5,.cls-6,.cls-7{fill:none;stroke:#212323;stroke-miterlimit:10;stroke-width:2px;}.cls-4{stroke-dasharray:3.03 7.06 15.14 3.03;}.cls-5{stroke-dasharray:7.06 15.14 3.03 7.06 15.14 3.03;}.cls-6{stroke-dasharray:3.19 7.45 15.97 3.19;}.cls-7{stroke-dasharray:7.45 15.97 3.19 7.45 15.97 3.19;}.cls-8{fill:#f9f2f2;}</style></defs><title>logo</title><path class="cls-1" d="M959.18,408.4a1.16,1.16,0,0,0,.64,0c81.69-26.88,87.18-18.89,97.16-9.9,10.64,9.58,57,64,26,120s-25,114-29,149-38,88-61,77-17.5-32.5-17.5-32.5c18-127-16-121.5-16-121.5S926,585,944,712c0,0,5.5,21.5-17.5,32.5s-57-42-61-77,2-93-29-149,15.36-110.42,26-120C872.49,389.51,877.49,381.52,959.18,408.4Z" transform="translate(-572.2 -389.99)"/><path class="cls-2" d="M1341,691c-256.27-30.68-512.54,30.68-768.8,0V573c256.26,30.68,512.53-30.68,768.8,0Z" transform="translate(-572.2 -389.99)"/><path class="cls-3" d="M1335,680.8v3.5l-3.5-.4" transform="translate(-572.2 -389.99)"/><path class="cls-4" d="M1316.36,682.33Q1303,681,1289.62,680" transform="translate(-572.2 -389.99)"/><path class="cls-5" d="M1288.11,679.91c-235-17.31-469.93,32.1-704.9,6.35" transform="translate(-572.2 -389.99)"/><path class="cls-3" d="M581.7,686.1l-3.5-.4v-3.5" transform="translate(-572.2 -389.99)"/><path class="cls-6" d="M578.2,666.23V638" transform="translate(-572.2 -389.99)"/><path class="cls-7" d="M578.2,636.43V584.8" transform="translate(-572.2 -389.99)"/><path class="cls-3" d="M578.2,583.2v-3.5l3.5.4" transform="translate(-572.2 -389.99)"/><path class="cls-4" d="M596.83,581.67q13.38,1.3,26.75,2.3" transform="translate(-572.2 -389.99)"/><path class="cls-5" d="M625.09,584.09c235,17.31,469.93-32.1,704.9-6.35" transform="translate(-572.2 -389.99)"/><path class="cls-3" d="M1331.5,577.9l3.5.4v3.5" transform="translate(-572.2 -389.99)"/><path class="cls-6" d="M1335,597.77V626" transform="translate(-572.2 -389.99)"/><path class="cls-7" d="M1335,627.57V679.2" transform="translate(-572.2 -389.99)"/><path class="cls-8" d="M628.1,606.73A34.29,34.29,0,0,1,641,610.21a37.7,37.7,0,0,1,10.59,7.72,36,36,0,0,1,7.15,10.92,33.18,33.18,0,0,1,2.62,13.08,31.44,31.44,0,0,1-2.62,12.84A30.69,30.69,0,0,1,641,671.48a30.65,30.65,0,0,1-12.94,1.77,33.26,33.26,0,0,1-13-3.62,37.42,37.42,0,0,1-10.54-8,38.34,38.34,0,0,1-7.11-11.23,34.15,34.15,0,0,1-2.62-13.22,30.51,30.51,0,0,1,2.62-12.7,29.82,29.82,0,0,1,7.11-9.89,30.48,30.48,0,0,1,10.54-6.21A31.81,31.81,0,0,1,628.1,606.73Zm0,51.2a16.67,16.67,0,0,0,7-.92,16.43,16.43,0,0,0,5.71-3.49,16.84,16.84,0,0,0,5.26-12.38,18,18,0,0,0-1.41-7.06,19.77,19.77,0,0,0-9.56-10.15,18.53,18.53,0,0,0-7-1.89,17.18,17.18,0,0,0-7,.89,16.55,16.55,0,0,0-5.71,3.4,16.34,16.34,0,0,0-3.85,5.39,16.57,16.57,0,0,0-1.4,6.86,18.27,18.27,0,0,0,1.4,7.1A20.13,20.13,0,0,0,621.16,656,17.9,17.9,0,0,0,628.14,657.93Z" transform="translate(-572.2 -389.99)"/><path class="cls-8" d="M679.26,609.2a34,34,0,0,1,12.46,3.54,35.78,35.78,0,0,1,10.15,7.57,35.21,35.21,0,0,1,6.8,10.62,33.24,33.24,0,0,1,2.49,12.82,31.87,31.87,0,0,1-19.31,29.58A32.7,32.7,0,0,1,679.26,676q-7.66-.25-15.32-.59V608.51q7.66.35,15.32.6Zm0,51.39a18.7,18.7,0,0,0,6.57-1.65,17.75,17.75,0,0,0,5.25-3.67,16.4,16.4,0,0,0,3.49-5.3,16.7,16.7,0,0,0,1.27-6.5,18.42,18.42,0,0,0-1.27-6.78,19.21,19.21,0,0,0-3.53-5.8,20.11,20.11,0,0,0-5.26-4.22,18.36,18.36,0,0,0-6.52-2.15Z" transform="translate(-572.2 -389.99)"/><path class="cls-8" d="M743.38,610.26a32.67,32.67,0,0,1,12.94,2.52,34,34,0,0,1,10.59,7,32.77,32.77,0,0,1,7.15,10.44,31.89,31.89,0,0,1,2.62,12.9,32.71,32.71,0,0,1-2.62,13,34.17,34.17,0,0,1-7.15,10.68,34.65,34.65,0,0,1-10.59,7.26,32.72,32.72,0,0,1-25.89.12A33.65,33.65,0,0,1,719.89,667a34.07,34.07,0,0,1-7.11-10.63,32.58,32.58,0,0,1-2.62-13,32,32,0,0,1,2.62-12.92A33.32,33.32,0,0,1,719.89,620a33.87,33.87,0,0,1,10.54-7.06A32.8,32.8,0,0,1,743.38,610.26Zm0,51.2a17.24,17.24,0,0,0,7-1.45,18.11,18.11,0,0,0,5.71-3.9,18.48,18.48,0,0,0,3.85-5.76,17.53,17.53,0,0,0,1.41-7,17.25,17.25,0,0,0-1.41-7,18,18,0,0,0-23.52-9.4,18.25,18.25,0,0,0-5.71,3.85,18,18,0,0,0-3.85,5.7,18.08,18.08,0,0,0,0,14,18.07,18.07,0,0,0,9.56,9.58A17.23,17.23,0,0,0,743.42,661.46Z" transform="translate(-572.2 -389.99)"/><path class="cls-8" d="M819.64,608.67q7.67-.28,15.32-.61v66.53q-8.3.35-16.59.65-10.87-19-21.75-38.08V676q-7.65.22-15.32.4V610q8.34-.18,16.68-.43,10.83,19,21.66,38Z" transform="translate(-572.2 -389.99)"/><path class="cls-8" d="M881.54,605.56v15.32l-12.78.66V673q-7.65.39-15.31.75V622.29l-12.69.57V607.54Q861.15,606.66,881.54,605.56Z" transform="translate(-572.2 -389.99)"/><path class="cls-8" d="M916.75,603.78a31.59,31.59,0,0,1,23.53,8.36,30.65,30.65,0,0,1,7.15,10.13,31.24,31.24,0,0,1,2.63,12.81,33.4,33.4,0,0,1-2.63,13.11,36,36,0,0,1-7.15,11,37,37,0,0,1-10.59,7.74,33.23,33.23,0,0,1-12.94,3.38,31.18,31.18,0,0,1-33.22-31.4,33.32,33.32,0,0,1,2.63-13.1,36,36,0,0,1,17.65-18.65A33.57,33.57,0,0,1,916.75,603.78Zm0,51.2a17.9,17.9,0,0,0,7-1.81,19.63,19.63,0,0,0,9.57-10.12,18.15,18.15,0,0,0,1.4-7.06,16.74,16.74,0,0,0-5.26-12.38,16.65,16.65,0,0,0-5.71-3.52,16.82,16.82,0,0,0-7-1,18.07,18.07,0,0,0-7,1.8A19.59,19.59,0,0,0,900.26,631a17.89,17.89,0,0,0-1.41,7,16.83,16.83,0,0,0,1.41,6.9,16.78,16.78,0,0,0,16.54,10Z" transform="translate(-572.2 -389.99)"/><path class="cls-8" d="M992.83,599.09v15.32l-12.78.75v51.48l-15.31.91V616.07l-12.69.76V601.51Q972.44,600.3,992.83,599.09Z" transform="translate(-572.2 -389.99)"/><path class="cls-8" d="M1028,597.29a31.4,31.4,0,0,1,13,2,31.73,31.73,0,0,1,10.58,6.59,31.09,31.09,0,0,1,7.15,10.21,31.48,31.48,0,0,1,2.63,12.84,33.19,33.19,0,0,1-2.63,13.08,35.47,35.47,0,0,1-7.15,10.9,36.72,36.72,0,0,1-10.58,7.65,33.6,33.6,0,0,1-13,3.31,31.67,31.67,0,0,1-12.94-1.92,31.13,31.13,0,0,1-20.27-29.48,33.44,33.44,0,0,1,2.62-13.12,36.11,36.11,0,0,1,17.65-18.67A33.23,33.23,0,0,1,1028,597.29Zm0,51.21a18.32,18.32,0,0,0,7-1.78,19.47,19.47,0,0,0,9.56-10.05,18.07,18.07,0,0,0,1.4-7,16.91,16.91,0,0,0-5.25-12.42,16.89,16.89,0,0,0-12.69-4.59,18,18,0,0,0-7,1.78,19.55,19.55,0,0,0-9.56,10.09,18,18,0,0,0-1.41,7.06,16.78,16.78,0,0,0,11,15.93A17,17,0,0,0,1028.09,648.5Z" transform="translate(-572.2 -389.99)"/><path class="cls-8" d="M1105.58,660.46q-19.82.64-39.61,1.56V595.4q7.66-.35,15.32-.66V646q12.14-.49,24.29-.9Z" transform="translate(-572.2 -389.99)"/><path class="cls-8" d="M1140.51,592.93a31.64,31.64,0,0,1,13,2.43,33.43,33.43,0,0,1,10.58,7,33,33,0,0,1,7.16,10.52,33.36,33.36,0,0,1,0,25.92,33.73,33.73,0,0,1-7.16,10.6,34.9,34.9,0,0,1-10.58,7.22,33,33,0,0,1-13,2.84,32.36,32.36,0,0,1-30.59-19.53,31.76,31.76,0,0,1-2.62-12.88,33,33,0,0,1,2.62-13,35.06,35.06,0,0,1,7.11-10.77,34.66,34.66,0,0,1,10.54-7.39A32.29,32.29,0,0,1,1140.51,592.93Zm0,51.21a17.68,17.68,0,0,0,7-1.53,18.43,18.43,0,0,0,9.56-9.68,17.54,17.54,0,0,0,1.4-7,17.24,17.24,0,0,0-1.4-7,17.64,17.64,0,0,0-9.56-9.44,17.16,17.16,0,0,0-7-1.28,17.36,17.36,0,0,0-7,1.55,18.62,18.62,0,0,0-9.56,9.78,17.68,17.68,0,0,0-1.41,7,17.29,17.29,0,0,0,1.41,6.94,17.52,17.52,0,0,0,16.54,10.6Z" transform="translate(-572.2 -389.99)"/><path class="cls-8" d="M1232.55,622.78V660q-7.71-.25-15.41-.43V658a28,28,0,0,1-5.21,1.21,36.49,36.49,0,0,1-5.3.31,34.71,34.71,0,0,1-12.6-2.6,33.18,33.18,0,0,1-11.06-7.4,32.11,32.11,0,0,1-7.29-11,34,34,0,0,1-2.4-12.55,34.46,34.46,0,0,1,2.4-12.6A32.88,32.88,0,0,1,1194,595a32.94,32.94,0,0,1,12.6-2.29A33.63,33.63,0,0,1,1230.28,603q-5.43,5.26-10.87,10.58a17.74,17.74,0,0,0-6-4.08,18.55,18.55,0,0,0-6.79-1.44,18.31,18.31,0,0,0-6.8,1.22,17,17,0,0,0-6,3.88,18.09,18.09,0,0,0-5.35,12.74,18.32,18.32,0,0,0,5.35,12.82,17.9,17.9,0,0,0,5.3,3.73,18.48,18.48,0,0,0,6.07,1.62,18.85,18.85,0,0,0,6.21-.49,16.78,16.78,0,0,0,5.71-2.6v-3.35q-6.66-.15-13.32-.25V622.11Q1218.18,622.32,1232.55,622.78Z" transform="translate(-572.2 -389.99)"/><path class="cls-8" d="M1255.11,660.94c-5.1-.25-10.21-.46-15.31-.66V593.67q7.65.29,15.31.66Z" transform="translate(-572.2 -389.99)"/><path class="cls-8" d="M1302.24,664.07c-.88-2.76-1.75-5.52-2.63-8.28q-10.47-.87-20.93-1.57-1.37,3.94-2.72,7.89-8.12-.51-16.22-.94,11.33-32.67,22.65-65.15,7.26.5,14.5,1.09,10.74,34.13,21.48,68.45Q1310.32,664.77,1302.24,664.07Zm-18.31-24.8c3.6.25,7.19.52,10.79.8q-2.62-8.27-5.26-16.53Q1286.7,631.4,1283.93,639.27Z" transform="translate(-572.2 -389.99)"/></svg>