<svg id="Camada_1" data-name="Camada 1" xmlns="http://www.w3.org/2000/svg" viewBox="0 0 512.32 758.56"><defs><style>.cls-1{fill:#f4eaea;stroke:#0f0f0f;stroke-width:9px;}.cls-1,.cls-2{stroke-miterlimit:10;}.cls-2{fill:#f1f467;stroke:#161615;}</style></defs><title>tratamentos_clareamento</title><path class="cls-1" d="M538,255.19a1.85,1.85,0,0,0,1.14,0c145.76-47.95,155.54-33.69,173.36-17.65,19,17.09,101.7,114.19,46.39,214.1S714.25,655,707.12,717.49s-67.8,157-108.84,137.38-31.22-58-31.22-58c32.11-226.6-28.52-216.78-28.52-216.78s-59.77-9.82-27.65,216.78c0,0,9.81,38.36-31.23,58S378,779.94,370.83,717.49s3.56-165.93-51.75-265.85,27.41-197,46.39-214.1C383.29,221.5,392.21,207.24,538,255.19Z" transform="translate(-295.82 -103.45)"/><path class="cls-2" d="M604,410.26c.07-.23.13-.46.2-.7l-.21.7Z" transform="translate(-295.82 -103.45)"/><path class="cls-2" d="M661,219.44l-.68-.2c-13.59,35.82-42.23,62.52-77.15,75.66,23.9,32.52,33,74.34,21,114.66,11.89-40.06,42-70,79.45-84.34l.27-.91C662.1,294.34,652.86,256.61,661,219.44Z" transform="translate(-295.82 -103.45)"/><path class="cls-2" d="M748.65,467.84l-.24-.43.23.43Z" transform="translate(-295.82 -103.45)"/><path class="cls-2" d="M682.44,349.47l-.33.18c11.43,23.42,13.53,48.6,7.34,69.67,22.94,6.16,44.94,23.1,59,48.09-13.93-24.82-17-52.23-10.46-74.93l-.32-.57C716.58,386.13,696.38,371.27,682.44,349.47Z" transform="translate(-295.82 -103.45)"/><path class="cls-2" d="M759.18,366.17c0-.32-.09-.64-.13-1,0,.32.07.64.11,1Z" transform="translate(-295.82 -103.45)"/><path class="cls-2" d="M727.87,104l-.89.11a176,176,0,0,1-50.33,132.28,176,176,0,0,1,82.4,128.82,176,176,0,0,1,48.56-144l-.15-1.26A176,176,0,0,1,727.87,104Z" transform="translate(-295.82 -103.45)"/></svg>