<svg id="svg41" xmlns="http://www.w3.org/2000/svg" viewBox="0 0 419 420.9"><defs><style>.cls-1{fill:#f4efef;fill-rule:evenodd;}</style></defs><title>whatsapp-logo-2020</title><g id="WhatsApp_Logo-7" data-name="WhatsApp Logo-7"><g id="WA_Logo" data-name="WA Logo"><path id="path4" class="cls-1" d="M677.69,380a207.6,207.6,0,0,0-147.5-61.2c-115,0-208.5,93.6-208.6,208.5a209,209,0,0,0,27.8,104.3l-29.6,108.1,110.6-29a208.69,208.69,0,0,0,99.7,25.4h.1c114.9,0,208.5-93.6,208.6-208.6A207.26,207.26,0,0,0,677.69,380Zm-147.5,320.9h0a172.9,172.9,0,0,1-88.3-24.2l-6.3-3.8L370,690.14l17.5-64-4.1-6.6a172.59,172.59,0,0,1-26.5-92.2c0-95.6,77.8-173.3,173.4-173.3a173.27,173.27,0,0,1,173.3,173.4C703.49,623.14,625.69,700.94,530.19,700.94ZM625.29,571c-5.2-2.6-30.8-15.2-35.6-17s-8.3-2.6-11.7,2.6-13.5,17-16.5,20.4-6.1,3.9-11.3,1.3-22-8.1-41.9-25.9c-15.5-13.8-25.9-30.9-29-36.1s-.3-8,2.3-10.6c2.3-2.3,5.2-6.1,7.8-9.1s3.5-5.2,5.2-8.7.9-6.5-.4-9.1-11.7-28.3-16.1-38.7c-4.2-10.2-8.5-8.8-11.7-8.9-3-.2-6.5-.2-10-.2a19.18,19.18,0,0,0-13.9,6.5c-4.8,5.2-18.2,17.8-18.2,43.5s18.7,50.4,21.3,53.9,36.7,56.1,89,78.7a286.93,286.93,0,0,0,29.7,11c12.5,4,23.8,3.4,32.8,2.1,10-1.5,30.8-12.6,35.2-24.8s4.3-22.6,3-24.8-4.8-3.5-10-6.1Z" transform="translate(-319.79 -318.84)"/></g></g></svg>